<?xml version="1.0" encoding="UTF-8"?>
<svg id="Capa_2" data-name="Capa 2" xmlns="http://www.w3.org/2000/svg" viewBox="0 0 50 44.45">
  <defs>
    <style>
      .cls-1 {
        fill: #fff;
      }
    </style>
  </defs>
  <g id="Capa_1-2" data-name="Capa 1">
    <path class="cls-1" d="M49.99,22.18c0,1.56-1.3,2.79-2.78,2.79h-2.78l.06,13.91c0,.23-.02,.47-.04,.7v1.4c0,1.92-1.55,3.47-3.47,3.47h-1.39c-.1,0-.19,0-.29,0-.12,0-.24,0-.36,0h-4.9c-1.92,0-3.47-1.55-3.47-3.47v-7.64c0-1.54-1.24-2.78-2.78-2.78h-5.56c-1.54,0-2.78,1.24-2.78,2.78v7.64c0,1.92-1.55,3.47-3.47,3.47h-4.85c-.13,0-.26,0-.39-.02-.1,0-.21,.02-.31,.02h-1.39c-1.92,0-3.47-1.55-3.47-3.47v-9.72c0-.08,0-.16,0-.24v-6.04H2.78c-1.56,0-2.78-1.22-2.78-2.79,0-.78,.26-1.48,.87-2.08L23.13,.69c.61-.61,1.3-.69,1.91-.69s1.3,.17,1.82,.61l22.17,19.49c.69,.61,1.04,1.3,.95,2.08Z"/>
  </g>
</svg>