<?xml version="1.0" encoding="UTF-8"?>
<svg id="Capa_2" data-name="Capa 2" xmlns="http://www.w3.org/2000/svg" viewBox="0 0 50 50">
  <defs>
    <style>
      .cls-1 {
        fill: #fff;
      }
    </style>
  </defs>
  <g id="Capa_1-2" data-name="Capa 1">
    <path class="cls-1" d="M16.1,2.4C15.35,.59,13.37-.38,11.47,.14L2.88,2.48c-1.7,.47-2.88,2.01-2.88,3.77C0,30.41,19.59,50,43.75,50c1.76,0,3.3-1.18,3.77-2.88l2.34-8.59c.52-1.89-.45-3.88-2.27-4.63l-9.37-3.91c-1.59-.66-3.44-.21-4.52,1.13l-3.95,4.81c-6.87-3.25-12.44-8.82-15.69-15.69l4.81-3.94c1.34-1.09,1.8-2.93,1.13-4.52l-3.91-9.37h0Z"/>
  </g>
</svg>