<?xml version="1.0" encoding="UTF-8"?>
<svg id="Capa_2" data-name="Capa 2" xmlns="http://www.w3.org/2000/svg" viewBox="0 0 869.31 954.75">
  <defs>
    <style>
      .cls-1 {
        fill: #f2e8f4;
      }

      .cls-2 {
        fill: #b390c2;
      }

      .cls-3 {
        fill: #b78829;
      }

      .cls-4 {
        fill: #6d3726;
      }

      .cls-5 {
        fill: #af9858;
        opacity: .4;
      }

      .cls-6 {
        fill: #d2d821;
        opacity: .25;
      }

      .cls-7 {
        fill: #e2bc02;
      }

      .cls-8 {
        opacity: .42;
      }

      .cls-8, .cls-9, .cls-10, .cls-11, .cls-12 {
        fill: #d6681d;
      }

      .cls-13 {
        opacity: .72;
      }

      .cls-13, .cls-14 {
        fill: #fcf0e1;
      }

      .cls-15 {
        fill: #34160f;
      }

      .cls-16 {
        opacity: .73;
      }

      .cls-16, .cls-17 {
        fill: #d2971e;
      }

      .cls-18, .cls-19 {
        fill: #7a3f2a;
      }

      .cls-20 {
        fill: #d3ac09;
        opacity: .77;
      }

      .cls-9 {
        opacity: .33;
      }

      .cls-21 {
        fill: #cbafd4;
      }

      .cls-22 {
        fill: #715a99;
      }

      .cls-10 {
        opacity: .34;
      }

      .cls-19 {
        opacity: .69;
      }

      .cls-23 {
        fill: #acca34;
      }

      .cls-14 {
        opacity: .65;
      }

      .cls-24 {
        fill: #f18434;
      }

      .cls-11 {
        opacity: .56;
      }

      .cls-25 {
        fill: #ae79b3;
      }

      .cls-12 {
        opacity: .26;
      }

      .cls-17 {
        opacity: .5;
      }
    </style>
  </defs>
  <g id="sombras">
    <g>
      <polygon class="cls-21" points="198.89 383.62 208.94 321.79 221.92 324.67 216.53 380.53 198.89 383.62"/>
      <path class="cls-24" d="M89.31,592.62c-4.45-11.22-12.02-19.97-27-37-15.33-17.44-23.64-24.47-30-40-3.56-8.7-4.37-14.83-2-20,3.45-7.54,10.54-6.26,15-13,6.06-9.15-1.78-19.41-4-39-.84-7.43,.45-4.47,3-36,2.37-29.34,1.94-40.48,10-54,3.37-5.65,5.56-9.21,10-11,12.88-5.19,34.19,8.71,45,26,10.09,16.14,7.17,29.02,18,34,5.31,2.44,7.21-.1,19,0,22.94,.2,29.25,9.95,39,6,8.92-3.61,7.57-13.36,17-33,8.53-17.78,26.38-44.68,38-42,9.15,2.11,12.28,22.06,14,33,2.01,12.8,1.1,23.28,0,36-1.82,20.98-4.73,24.25-3,37,1.69,12.47,6.26,22.43,7,24,1.53,3.27,5.37,9.89,13,23,5.53,9.5,7.05,12.01,7,16-.08,6.53-4.41,10.78-10,17-21.69,24.15-15.76,25.44-33,42-8.54,8.2-14.02,11.76-13,16,1.07,4.45,8.32,5.51,17,8,28.37,8.12,30.13,19.4,49,22,13.59,1.87,18.02-3.24,36-7,23.53-4.92,41.88-1.12,67,3,18.75,3.08,39.57,6.49,64,18,26.54,12.51,29.54,21.47,42,20,19.87-2.34,32.34-27.47,45-53,5.43-10.95,14.5-29.62,18-56,4.22-31.79-4.97-34.57,0-57,7.54-34.01,34.78-55.17,50-67,23.88-18.55,49.77-28.3,52-25,1.64,2.42-11.01,9.62-19,28-6,13.8-6.04,26.22-6,32,.11,16.77,5.12,25.25,12,45,10.9,31.31,19.51,56.03,13,83-2.79,11.57-7.36,19.37-13,29-4.84,8.27-20.06,33.66-47,50-38.88,23.58-80.97,15.43-82,26-.27,2.8,2.69,3.15,8,10,8.98,11.58,11.01,24.15,14,44,2.27,15.11,.7,14.63,3,27,.92,4.93,3.35,17.67,9,31,9.13,21.58,16.98,21.84,32,49,7.09,12.81,10.66,19.41,12,29,1.78,12.73-.77,25.13-3,36-2.32,11.31-3.96,13.09-5,23-1.3,12.41,.6,15.94-2,20-5.85,9.14-23.62,11.29-36,5-8.03-4.08-15.96-12.81-14-18,1.8-4.77,10.16-1.85,19-8,11.97-8.33,12.91-24.99,13-27,.43-9.99-3.03-23.49-13-30-4.49-2.93-6.54-1.99-18-4-25.66-4.5-37.25-13.07-42-8-2.05,2.18-.45,4.37-1,10-1.18,12.16-10.41,20.47-27,35-7.96,6.97-6.23,4.47-24,19-5.89,4.81-10.6,8.79-18,14-8.05,5.67-12.07,8.51-16,10-2.86,1.09-19.89,7.18-32-2-3.73-2.83-9.6-9.08-8-14,1.59-4.9,9.21-4.19,24-9,5.6-1.82,18.15-6,30-15,6.87-5.22,13.72-10.41,18-20,.51-1.14,7.85-18.27,0-35-1.75-3.74-9.5-10.49-25-24-18.59-16.2-12.24-8.96-26-21-3.94-3.44-6.12-5.49-10-7-10.05-3.91-19.92,.26-25,2-33.29,11.38-77-8-77-8,0,0-1.78,20.34-4,33-4.85,27.72-17.19,49.62-22,58-8.94,15.57-12.97,17.44-16,29-2.86,10.9-1.33,17.09-7,27-2.27,3.97-6.53,11.18-15,15-6.74,3.04-12.55,2.31-23,1-11.24-1.41-21.48-2.7-23-8-1.38-4.83,5.12-10.74,12-17,8.77-7.97,12.92-8.76,18-13,5.73-4.78,7.27-9.47,16-44,7.98-31.59,8.69-35.56,6-41-4.51-9.14-11.68-8.47-19-22-5.14-9.5-5.19-16.46-9-17-3.66-.51-5.74,5.62-13,14-1.48,1.71-11.49,13.06-26,20-13.62,6.52-20.29,3.93-25,11-1.94,2.92-2.29,7.61-3,17-.96,12.7-1.43,19.05,2,22,3.49,3,6.76-.11,17,2,5.52,1.14,11.32,2.33,15,7,4.94,6.26,3.45,15.46,1,21-.33,.74-5.63,12.29-15,13-5.2,.4-9.87-3.73-19-12-16.15-14.62-24.24-21.96-25-23-11.19-15.35-13.32-31.35-14-37-2.04-16.83,3.08-18.52,8-53,2.7-18.91,3.34-33.67,4-49,.64-14.82,.94-22.43,0-32-2.01-20.43-6.16-20.77-8-38-2.29-21.47,3.79-24.33,2-50-.75-10.72-1.43-20.46-6-32Z"/>
      <polygon class="cls-3" points="392.37 486.62 386.11 512.97 380.31 548.62 383.06 558.9 415.65 601.13 408.65 543.87 392.37 486.62"/>
      <polygon class="cls-3" points="440.99 447.15 436.28 481.73 433.33 528.16 438.15 541 485.25 591.04 469.07 518.51 440.99 447.15"/>
      <polygon class="cls-3" points="481.81 411.99 486.63 454.4 497.1 510.33 506.68 524.1 577.57 569.25 536.56 488.14 481.81 411.99"/>
      <path class="cls-3" d="M500.78,391.23l163.78,118.89s80.75,55.5,87.75,53.5-69.96-4.72-69.96-4.72h-44.56l-17.48-3.28-22.42-14.89-97.1-149.5Z"/>
      <polygon class="cls-3" points="500.31 369.62 869.31 423.62 780.78 463.08 724.91 475.55 690.99 477.45 500.31 369.62"/>
      <path class="cls-3" d="M485.25,352.49l365.05-118.87s-120,125-129,128-236.05-9.13-236.05-9.13Z"/>
      <path class="cls-3" d="M481.81,333.44L800.31,32.62l-26,64-45,113s-18,24-30,28-217.5,95.81-217.5,95.81Z"/>
      <polygon class="cls-3" points="256.64 383.27 264.14 408.63 300.69 381.03 308.81 373.18 256.64 383.27"/>
      <polygon class="cls-3" points="248.8 346.03 280.31 332.62 317.28 332.62 272.72 361.16 248.8 346.03"/>
      <path class="cls-3" d="M227,307.93l78.84-59.19-22.53,39.24-2.5,27.27s-42.11,2-53.81-7.32Z"/>
      <path class="cls-3" d="M216.89,282.08l63.91-131.11-14.39,69.83s3.11,31.36,0,34.58-49.53,26.69-49.53,26.69Z"/>
      <polygon class="cls-3" points="205.89 272.35 222.29 67.84 233.79 150.97 244.31 198.62 205.89 272.35"/>
      <path class="cls-3" d="M192,260.05l-17.96-55.87L134.31,0l43,80.62,24.6,61.71s-4.22,108.15-9.91,117.72Z"/>
      <path class="cls-13" d="M279.31,762.62c6.16-5.91,15.7-.58,49,4,17.1,2.35,14.42,.92,28,3,23.91,3.66,40.09,6.13,55,17,14.67,10.69,23.04,25.82,21,28-1.98,2.13-12.64-9.33-34-15-4.52-1.2-14.82-3.84-28-3-14.79,.95-17.27,5.27-33,6-7.82,.37-13.22-.42-24-2-18.87-2.76-28.31-4.14-33-10-6.21-7.76-7.32-21.94-1-28Z"/>
      <path class="cls-14" d="M63.31,460.62c-11.13-6.82-10.23-27.43-9-56,.12-2.74,.05,.51,6-39,1.68-11.17,2.16-14.56,5-16,8.26-4.18,26.94,13.04,37,29,3.22,5.11,5.19,9.5,9,18,6.76,15.07,10.14,22.6,10,28-.54,21.55-40.96,46.44-58,36Z"/>
      <path class="cls-14" d="M245.38,451.81c10.24-6.27,9.42-25.25,8.28-51.53-.11-2.52-.04,.47-5.52-35.89-1.55-10.28-1.99-13.4-4.6-14.72-7.6-3.85-24.79,12-34.05,26.69-2.96,4.7-4.78,8.75-8.28,16.56-6.22,13.87-9.33,20.8-9.2,25.77,.5,19.83,37.69,42.74,53.37,33.13Z"/>
      <path class="cls-14" d="M57.75,500.25c10.06-33.49,15.51-51.6,34-68,5.97-5.29,15.86-13.87,31-18,14.27-3.89,18.52,.18,48,1,30.68,.85,34.21-3.33,46,2,3.96,1.79,22.88,10.99,28,29,3.47,12.21-1.46,21.22,6,31,4.85,6.36,8.82,5.01,11,10,2.97,6.8-4.31,17.63-19,39-13.89,20.21-20.88,30.37-23,33-13.27,16.45-17.73,18.25-26,31-7.06,10.87-10.57,19.96-14,29-4.15,10.93-7.42,22.33-15,70-3.75,23.57-5.61,35.45-5,40,4.57,34.3,33.74,52.91,31,56-2.55,2.87-29.26-11.56-51-37-9.81-11.48-27.6-32.29-31-62-1.89-16.49,2.78-17.18,2-45-.52-18.61-.91-32.43-7-49-2.92-7.93-10.2-27.75-28-45-9.17-8.88-17.04-13.13-20-24-2.1-7.72-.56-14.48,2-23Z"/>
      <path class="cls-18" d="M194.31,457.62c12.12-15.82,29-23,29-23,28.17-11.98,32.84-6.4,50-15,27.94-14,40.48-41.3,44-50,6.28-15.51,6.97-28.92,7.09-31.88,.83-20.48-5.69-34.58-4.09-35.12,1.61-.55,9.71,13.33,13,31,1.63,8.73,1.44,15.27,1,28-.72,20.82-1.08,31.23-6,43-5.74,13.73-14.2,22.43-18,26-3.77,3.54-13.65,12.63-29,17-5.5,1.57-6.17,.95-38,2-21.32,.7-24.84,1.1-30,3-12.08,4.44-20.68,12.48-22,11-.79-.89,1.79-4.43,3-6Z"/>
      <path class="cls-18" d="M141.76,465.64c-12.12-15.82-29-23-29-23-28.17-11.98-32.84-6.4-50-15-27.94-14-40.48-41.3-44-50-6.28-15.51-6.97-28.92-7.09-31.88-.83-20.48,5.69-34.58,4.09-35.12-1.61-.55-9.71,13.33-13,31-1.63,8.73-1.44,15.27-1,28,.72,20.82,1.08,31.23,6,43,5.74,13.73,14.2,22.43,18,26,3.77,3.54,13.65,12.63,29,17,5.5,1.57,6.17,.95,38,2,21.32,.7,24.84,1.1,30,3,12.08,4.44,20.68,12.48,22,11,.79-.89-1.79-4.43-3-6Z"/>
      <path class="cls-23" d="M141.31,470.62c-1.88-1.33-4.59-3.13-8-5-3.01-1.65-7.72-4.2-14-6-3.86-1.11-6.65-1.46-11-2-15.55-1.95-16,1.2-25-1-1.55-.38-4.15-1.11-5,0-.63,.82-.17,2.5,2,6,3.73,6.02,7.82,9.88,9,11,9.43,8.95,7.49,8.32,11,11,12.62,9.64,26.44,9.23,34,9,2.08-.06,4.68-.26,7-2,4.05-3.03,5.18-9.21,4-14-.86-3.51-2.86-5.85-4-7Z"/>
      <path class="cls-23" d="M193.09,462.82c1.88-1.33,4.59-3.13,8-5,3.01-1.65,7.72-4.2,14-6,3.86-1.11,6.65-1.46,11-2,15.55-1.95,16,1.2,25-1,1.55-.38,4.15-1.11,5,0,.63,.82,.17,2.5-2,6-3.73,6.02-7.82,9.88-9,11-9.43,8.95-7.49,8.32-11,11-12.62,9.64-26.44,9.23-34,9-2.08-.06-4.68-.26-7-2-4.05-3.03-5.18-9.21-4-14,.86-3.51,2.86-5.85,4-7Z"/>
      <path class="cls-7" d="M158.31,496.62c-1.32,.68-3.01,1.71-3,3,0,1.22,1.51,2,3,3,.67,.45,3.12,2.97,8,8,3.68,3.79,5.52,5.71,6,7,.99,2.68,.62,5.03,0,9-.28,1.8-1.2,6.7-2,11-.31,1.67-.49,2.67,0,3,1.38,.94,6.58-4.55,7-5,3.51-3.74,5.16-7.01,10-18,5.26-11.92,6.22-14.65,5-18-1.2-3.28-3.74-5.1-5-6-9.69-6.94-22.75-.22-29,3Z"/>
      <path class="cls-19" d="M227.28,590.21c-10.8,6.17-11.61,21.82-13.04,49.55-.64,12.34-1.36,28.98,4.35,49.55,4.85,17.47,13.5,34.75,16.52,33.9,2.58-.73-1.17-14.06-.87-40.86,.17-14.91,.37-25.51,4.35-39.12,2.82-9.64,5.54-18.92,13.04-28.69,6.83-8.89,11.86-10.67,11.3-14.78-1.11-8.11-22.89-16.85-35.64-9.56Z"/>
      <path class="cls-19" d="M270.16,601.68c-10.8,6.17-11.61,21.82-13.04,49.55-.64,12.34-1.36,28.98,4.35,49.55,4.85,17.47,13.5,34.75,16.52,33.9,2.58-.73-1.17-14.06-.87-40.86,.17-14.91,.37-25.51,4.35-39.12,2.82-9.64,5.54-18.92,13.04-28.69,6.83-8.89,11.86-10.67,11.3-14.78-1.11-8.11-22.89-16.85-35.64-9.56Z"/>
      <path class="cls-19" d="M337.87,599.16c-10.8,6.17-11.61,21.82-13.04,49.55-.64,12.34-1.36,28.98,4.35,49.55,4.85,17.47,13.5,34.75,16.52,33.9,2.58-.73-1.17-14.06-.87-40.86,.17-14.91,.37-25.51,4.35-39.12,2.82-9.64,5.54-18.92,13.04-28.69,6.83-8.89,11.86-10.67,11.3-14.78-1.11-8.11-22.89-16.85-35.64-9.56Z"/>
      <path class="cls-19" d="M388.29,601.98c-10.8,6.17-11.61,21.82-13.04,49.55-.64,12.34-1.36,28.98,4.35,49.55,4.85,17.47,13.5,34.75,16.52,33.9,2.58-.73-1.17-14.06-.87-40.86,.17-14.91,.37-25.51,4.35-39.12,2.82-9.64,5.54-18.92,13.04-28.69,6.83-8.89,11.86-10.67,11.3-14.78-1.11-8.11-22.89-16.85-35.64-9.56Z"/>
      <path class="cls-19" d="M432.62,621.98c-10.8,6.17-11.61,21.82-13.04,49.55-.64,12.34-1.36,28.98,4.35,49.55,4.85,17.47,13.5,34.75,16.52,33.9,2.58-.73-1.17-14.06-.87-40.86,.17-14.91,.37-25.51,4.35-39.12,2.82-9.64,5.54-18.92,13.04-28.69,6.83-8.89,11.86-10.67,11.3-14.78-1.11-8.11-22.89-16.85-35.64-9.56Z"/>
      <path class="cls-17" d="M126.31,470.62c0,6-9.92-2.94-23-5-9.01-1.42-15-2-15-2-3.45-.33-6.65-.56-9-3-1.9-1.97-2.94-5.08-2-6,1.19-1.17,4.62,2.1,10,3,5.32,.89,6-2.46,12-2,2.92,.22,2.89,.93,9,2,4.1,.72,3.84,.35,7,1,3.93,.8,2.69,.24,9,2,3.7,1.03,5.65,2.13,6,3,.74,1.84-4,1.9-4,7Z"/>
      <path class="cls-17" d="M214.36,459.57c0,5.15,8.51-2.52,19.74-4.29,7.74-1.22,12.87-1.72,12.87-1.72,2.96-.29,5.71-.48,7.72-2.57,1.63-1.69,2.52-4.36,1.72-5.15-1.02-1-3.96,1.8-8.58,2.57-4.57,.76-5.15-2.11-10.3-1.72-2.51,.19-2.48,.8-7.72,1.72-3.52,.62-3.29,.3-6.01,.86-3.37,.69-2.31,.2-7.72,1.72-3.18,.89-4.84,1.82-5.15,2.57-.64,1.58,3.43,1.63,3.43,6.01Z"/>
      <path class="cls-16" d="M136.31,472.62c.92,.42,2.33,1.08,4,2,2.73,1.5,3.66,2.29,4,2,.57-.49-.97-3.62-3-6-2.37-2.78-5.15-4.23-7-5"/>
      <path class="cls-16" d="M209.31,453.62c-1.58,.36-3.67,.96-6,2-.92,.41-4.89,2.23-9,6-1.19,1.09-2.73,2.66-4,5-.41,.76-1.43,2.64-1,3,.45,.38,2.05-1.24,6-4,4.03-2.82,5.88-3.6,7-4,1.63-.59,3.04-.86,4-1"/>
      <path class="cls-5" d="M126.31,470.62c-5.04-1.44-9.56-2.55-21-5-11.79-2.53-24-5-24-5h0s1.6,4.9,2,6c1.52,4.23,4.76,6.7,10,11,12.67,10.39,10.33,9.51,13,11,7.76,4.33,14.81,4.64,23,5,8.76,.39,10.94-1.07,12-2,3.2-2.8,4.57-8.08,3-12-1.03-2.56-3.43-4.83-18-9Z"/>
      <path class="cls-5" d="M205.31,460.62c-1.03-.13-7.98-.93-13,4-.94,.93-3.65,3.66-4,8-.52,6.42,4.66,10.72,5,11,4.58,3.68,10.39,2.95,18,2,3.6-.45,8.82-1.15,15-4,9.2-4.24,14.58-10.52,21-18,4.13-4.81,7.11-9.09,9-12"/>
      <path class="cls-7" d="M123.31,461.62c-2.78,1.25-2.93,6.29-3,10-.13,6.92-.25,12.75,4,16,3.41,2.61,7.68,2.05,8,2,.78-.11,3.74-.59,6-3,3.61-3.85,2.59-9.64,2-13-.42-2.4-.72-4.11-2-6-2.95-4.36-8.14-5.3-12-6-1.86-.34-2.48-.23-3,0Z"/>
      <path class="cls-7" d="M219.51,451.94c2.78,1.25,2.93,6.29,3,10,.13,6.92,.25,12.75-4,16-3.41,2.61-7.68,2.05-8,2-.78-.11-3.74-.59-6-3-3.61-3.85-2.59-9.64-2-13,.42-2.4,.72-4.11,2-6,2.95-4.36,8.14-5.3,12-6,1.86-.34,2.48-.23,3,0Z"/>
      <ellipse cx="130.81" cy="474.97" rx="5.5" ry="11.65"/>
      <path class="cls-6" d="M141.61,471.19c-1.88-1.33-4.59-3.13-8-5-3.01-1.65-7.72-4.2-14-6-3.86-1.11-6.65-1.46-11-2-15.55-1.95-16,1.2-25-1-1.55-.38-4.15-1.11-5,0-.63,.82-.17,2.5,2,6,3.73,6.02,7.82,9.88,9,11,9.43,8.95,7.49,8.32,11,11,12.62,9.64,26.44,9.23,34,9,2.08-.06,4.68-.26,7-2,4.05-3.03,5.18-9.21,4-14-.86-3.51-2.86-5.85-4-7Z"/>
      <path class="cls-6" d="M193.39,463.39c1.88-1.33,4.59-3.13,8-5,3.01-1.65,7.72-4.2,14-6,3.86-1.11,6.65-1.46,11-2,15.55-1.95,16,1.2,25-1,1.55-.38,4.15-1.11,5,0,.63,.82,.17,2.5-2,6-3.73,6.02-7.82,9.88-9,11-9.43,8.95-7.49,8.32-11,11-12.62,9.64-26.44,9.23-34,9-2.08-.06-4.68-.26-7-2-4.05-3.03-5.18-9.21-4-14,.86-3.51,2.86-5.85,4-7Z"/>
      <ellipse cx="211.39" cy="465.69" rx="5.5" ry="11.65"/>
      <path class="cls-8" d="M101.31,709.62c-.57,.28,2.93,11.09,10,23,2.75,4.62,17.27,28.33,49,46,16.68,9.29,31.83,13.41,32,13,.16-.38-12.39-4.89-28-14-7.57-4.42-21.45-12.51-34-25-20.62-20.51-28.17-43.41-29-43Z"/>
      <path class="cls-20" d="M182.31,491.62c-.02,.37-6.57-.76-14,2-2.84,1.06-6.62,2.46-7,5-.35,2.32,2.41,3.77,7,9,1,1.14,4.46,5.09,6,8,5.32,10.08-3.22,25.21-4,25-.05-.01,0-.06,2-14,.31-2.14,1.64-4.25,1-7-.14-.62-.52-1.93-3-5-3.87-4.79-4.83-3.93-8-8-1.89-2.43-2.69-4.2-5-5-.9-.31-1.76-.39-2-1-.46-1.2,2-3.2,3-4,6.67-5.32,14.5-5.97,15-6,5.03-.35,9.02,.71,9,1Z"/>
      <path class="cls-4" d="M193.31,460.62c-.46-.75,5.39-6.01,13-10,8.66-4.54,16.86-5.99,28-7,20.36-1.84,23.94,.23,34-1,16.21-1.99,30.8-10.28,40-19,26.53-25.14,22.22-67.08,21-79-2.35-22.89-10.83-41.32-9-42,1.25-.46,5.95,7.89,9,16,1.73,4.58,5.25,15.23,5,42-.14,14.89-.2,22.33-2,30-1.66,7.09-5.36,22.08-18,36-4.06,4.47-11.27,12.24-23,17-6.55,2.65-10.13,2.6-44,4-19.24,.8-21.6,.96-26,2-16.56,3.9-27.39,11.99-28,11Z"/>
      <path class="cls-4" d="M141.01,469.23c.46-.75-5.39-6.01-13-10-8.66-4.54-16.86-5.99-28-7-20.36-1.84-23.94,.23-34-1-16.21-1.99-30.8-10.28-40-19C-.52,407.09,3.79,365.15,5.01,353.23c2.35-22.89,10.83-41.32,9-42-1.25-.46-5.95,7.89-9,16-1.73,4.58-5.25,15.23-5,42,.14,14.89,.2,22.33,2,30,1.66,7.09,5.36,22.08,18,36,4.06,4.47,11.27,12.24,23,17,6.55,2.65,10.13,2.6,44,4,19.24,.8,21.6,.96,26,2,16.56,3.9,27.39,11.99,28,11Z"/>
      <path class="cls-15" d="M71.31,452.62c-.2,.6,3.83,2.46,5,3,1.7,.78,4.81,2.2,9,3,5.81,1.11,7.51-.14,14,0,1.78,.04,2.44,.15,17,3,12.59,2.47,12.96,2.55,14,3,9.89,4.25,14.22,12.58,15,12,.64-.48-1.58-6.64-7-11-1.96-1.58-3.62-2.34-16-6-11.69-3.46-13.63-3.79-15-4-5.36-.81-10.52-.94-13-1-4.26-.11-4,.11-7,0-9.57-.37-15.75-2.73-16-2Z"/>
      <path class="cls-15" d="M264.05,443.83c.2,.6-3.83,2.46-5,3-1.7,.78-4.81,2.2-9,3-5.81,1.11-7.51-.14-14,0-1.78,.04-2.44,.15-17,3-12.59,2.47-12.96,2.55-14,3-9.89,4.25-14.22,12.58-15,12-.64-.48,1.58-6.64,7-11,1.96-1.58,3.62-2.34,16-6,11.69-3.46,13.63-3.79,15-4,5.36-.81,10.52-.94,13-1,4.26-.11,4,.11,7,0,9.57-.37,15.75-2.73,16-2Z"/>
      <ellipse class="cls-22" cx="283.31" cy="640.62" rx="56" ry="53"/>
      <polygon class="cls-22" points="305.84 469.01 295.94 540.73 348.98 498.81 364.31 430.62 305.84 469.01"/>
      <ellipse class="cls-25" cx="280.81" cy="640.12" rx="31.5" ry="28.5"/>
      <polygon class="cls-1" points="348.98 437.22 468.31 341.08 468.31 368.12 438.6 391.23 432.61 409.8 356.31 451.62 348.98 437.22"/>
      <path class="cls-21" d="M295.94,540.73v21.93l-31.88,28.18s48.88-2.21,62.06,20.79,8.49-15.19,8.49-15.19v-29.79l14.37-67.84-53.05,41.92Z"/>
      <polygon class="cls-2" points="356.31 451.62 423.97 406.03 428.62 391.23 460.54 375.62 443.73 413.67 438.6 431.97 348.98 498.81 356.31 451.62"/>
      <path class="cls-1" d="M174.04,408.29l18.74-135.94,13.11,21.95v74.34l-15.95,36.64s4.84,7.69-15.9,3.01Z"/>
      <path class="cls-10" d="M432.31,814.62c-.1,.15,.36,.97,16.04,12.32,10.24,7.42,18.85,13.45,24.96,17.68,0,0,16.09,10.78,26,10,.31-.02,1.89-.17,4,0,4.12,.33,7.07,1.61,8,2,7.34,3.04,24.12,6.55,35,8,4.25,.56,6.17,.62,9,2,6.35,3.09,9.44,9.01,11,12,.63,1.22,3.46,6.81,4,15,.25,3.86,1.02,13.94-5,23-1.27,1.91-3.65,5.41-8,8-2.96,1.76-6.33,2.8-7,3-4.04,1.22-6.15,1.02-9,3-1.41,.98-2.49,1.73-3,3-1.77,4.39,4.67,11.42,10,15,6.77,4.55,13.73,4.89,17,5,10.79,.38,20.21-3.98,20-5-.12-.6-3.53,.19-11,0-9.15-.24-16.04-.5-21-5-.61-.56-4.95-4.49-4-8,.85-3.14,5.28-3.47,10-6,7.23-3.87,10.66-10.48,13-15,1.24-2.4,7.59-15.26,3-30-5.36-17.23-21.7-24.28-28-27-5.53-2.39-9.79-3.17-14-4-23.19-4.59-44.54-10.78-54-14-28.55-9.73-46.48-25.8-47-25Z"/>
      <path class="cls-10" d="M219.31,578.62c-1.94-1-20.58,26.66-33,60-7.98,21.41-10.57,37.56-14,59-2.1,13.08-3.21,24.33-1.72,37.88,1.07,9.77,3.09,16.97,3.72,19.12,5.87,20.21,17.68,38.02,20,37,2.71-1.19-10.76-26.73-16-55-15.2-81.9,44.26-156.32,41-158Z"/>
      <path class="cls-12" d="M199.31,799.62c-1.05,.96,6.12,14.88,15,22,1.65,1.33,6.79,5.16,9,12,.04,.11,.19,.59,.34,1.15,2.01,7.73-1.41,15.63-2.34,17.85-3.58,8.58-4.67,18-7,27-4.65,17.94-4.08,19.14-7,24-4.76,7.93-11.94,14.22-14,16-2.16,1.86-2.94,2.32-11,9-4.3,3.56-7.54,6.3-10,11-1.55,2.96-2.32,4.44-2,6,1.3,6.29,15.92,9.53,28,9,.29-.01,.57-.03,.89-.05,15.49-.94,26.5-7.83,26.11-8.95-.48-1.37-17.34,7.7-34,1-3.58-1.44-7.33-2.95-8-6-1.56-7.07,15.94-10.81,27-28,1.68-2.61,4.45-11.41,10-29,1.15-3.66,4.55-14.52,8-29,4.23-17.75,4.14-22.48,2-27-1.09-2.3-4.74-5.57-12-12-16.46-14.59-18.55-16.41-19-16Z"/>
      <path class="cls-9" d="M470.31,629.62s8.89,11.46,22,12c5.38,.22,14.24-1.28,28-15,29.25-29.17,35.71-68.74,38-84,3-19.93,2-40,2-40-.4-11.29-1.26-12.01-1-18,.85-19.39,10.83-33.71,18-44,2.81-4.03,16.68-23.46,44-40,21.96-13.3,43.46-19.2,44-18,.43,.97-13.21,6.07-32,19-11.99,8.25-25.55,17.74-38,34-14.54,18.99-19.93,37.23-21,41-7.87,27.75,2.46,32.81-2,68-1.39,10.97-5.06,37.71-22,63-8.35,12.47-17.42,20.85-23,26-9.23,8.53-13.98,12.82-20,14-18.59,3.65-36.96-18.06-37-18Z"/>
      <path class="cls-11" d="M109.31,728.62c3.99,15.28,.33,26.03-5,49-5.9,25.41-8.85,38.47-9,56-.12,14.76-.09,23.35,5,33,5.65,10.71,10.11,8.63,26,28,7.47,9.1,9.83,13.63,16,15,9.85,2.18,18.39-6.14,20-4,1.26,1.67-2.76,8.36-9,11-5.14,2.18-10.01,.86-13,0-7.89-2.26-10.79-7.24-21-18-12.65-13.33-13.25-11.36-18-18-7.6-10.62-9.95-21.09-11-26-3.89-18.14,1.57-25.2,7-63,2.36-16.47,3.74-26.06,4-40,.42-22.74-2.49-38.45,0-39,1.86-.41,5.86,7.82,8,16Z"/>
    </g>
  </g>
</svg>