<?xml version="1.0" encoding="UTF-8"?>
<svg id="Capa_2" data-name="Capa 2" xmlns="http://www.w3.org/2000/svg" viewBox="0 0 91.87 91.87">
  <defs>
    <style>
      .cls-1 {
        fill: #406aa8;
        stroke: #fff;
        stroke-miterlimit: 10;
      }
    </style>
  </defs>
  <g id="Capa_1-2" data-name="Capa 1">
    <path class="cls-1" d="M91.37,45.94c0-25.09-20.34-45.44-45.44-45.44-25.09,0-45.44,20.34-45.44,45.44,0,25.09,20.34,45.44,45.44,45.44,25.09,0,45.44-20.34,45.44-45.44ZM41.5,23.04c1.67-1.67,4.37-1.67,6.02,0,1.65,1.67,1.67,4.37,0,6.02l-12.6,12.6,32.32,.02c2.36,0,4.26,1.9,4.26,4.26s-1.9,4.26-4.26,4.26H34.91s12.6,12.6,12.6,12.6c1.67,1.67,1.67,4.37,0,6.02-1.67,1.65-4.37,1.67-6.02,0l-19.88-19.86c-1.67-1.67-1.67-4.37,0-6.02l19.88-19.9Z"/>
  </g>
</svg>