<?xml version="1.0" encoding="UTF-8"?>
<svg id="Capa_2" data-name="Capa 2" xmlns="http://www.w3.org/2000/svg" viewBox="0 0 50 46.88">
  <defs>
    <style>
      .cls-1 {
        fill: #fff;
      }
    </style>
  </defs>
  <g id="Capa_1-2" data-name="Capa 1">
    <path class="cls-1" d="M17.97,4.69h14.06c.43,0,.78,.35,.78,.78v3.91h-15.62v-3.91c0-.43,.35-.78,.78-.78Zm-5.47,.78v3.91H6.25c-3.45,0-6.25,2.8-6.25,6.25v9.38H50V15.62c0-3.45-2.8-6.25-6.25-6.25h-6.25v-3.91c0-3.02-2.45-5.47-5.47-5.47h-14.06c-3.02,0-5.47,2.45-5.47,5.47ZM50,28.12H31.25v3.12c0,1.73-1.4,3.12-3.12,3.12h-6.25c-1.73,0-3.12-1.4-3.12-3.12v-3.12H0v12.5c0,3.45,2.8,6.25,6.25,6.25H43.75c3.45,0,6.25-2.8,6.25-6.25v-12.5Z"/>
  </g>
</svg>