<?xml version="1.0" encoding="UTF-8"?>
<svg id="Capa_2" data-name="Capa 2" xmlns="http://www.w3.org/2000/svg" viewBox="0 0 141 140.97">
  <defs>
    <style>
      .cls-1 {
        fill: #668dd3;
        stroke: #fff;
        stroke-miterlimit: 10;
      }
    </style>
  </defs>
  <g id="Capa_1-2" data-name="Capa 1">
    <path class="cls-1" d="M70.52,34.6c-19.86,0-35.89,16.02-35.89,35.89s16.02,35.89,35.89,35.89,35.89-16.02,35.89-35.89-16.02-35.89-35.89-35.89Zm0,59.22c-12.84,0-23.33-10.46-23.33-23.33s10.46-23.33,23.33-23.33,23.33,10.46,23.33,23.33-10.49,23.33-23.33,23.33h0Zm45.72-60.68c0,4.65-3.75,8.37-8.37,8.37s-8.37-3.75-8.37-8.37,3.75-8.37,8.37-8.37,8.37,3.75,8.37,8.37Zm23.77,8.5c-.53-11.21-3.09-21.14-11.31-29.33C120.52,4.12,110.59,1.55,99.37,.99c-11.56-.66-46.19-.66-57.75,0-11.18,.53-21.11,3.09-29.33,11.27C4.08,20.45,1.55,30.38,.99,41.59c-.66,11.56-.66,46.19,0,57.75,.53,11.21,3.09,21.14,11.31,29.33,8.21,8.18,18.11,10.74,29.33,11.31,11.56,.66,46.19,.66,57.75,0,11.21-.53,21.14-3.09,29.33-11.31,8.18-8.18,10.74-18.11,11.31-29.33,.66-11.56,.66-46.16,0-57.72h0Zm-14.93,70.12c-2.44,6.12-7.15,10.84-13.31,13.31-9.21,3.65-31.08,2.81-41.26,2.81s-32.08,.81-41.26-2.81c-6.12-2.44-10.84-7.15-13.31-13.31-3.65-9.21-2.81-31.08-2.81-41.26s-.81-32.08,2.81-41.26c2.44-6.12,7.15-10.84,13.31-13.31,9.21-3.65,31.08-2.81,41.26-2.81s32.08-.81,41.26,2.81c6.12,2.44,10.84,7.15,13.31,13.31,3.65,9.21,2.81,31.08,2.81,41.26s.84,32.08-2.81,41.26Z"/>
  </g>
</svg>