<?xml version="1.0" encoding="UTF-8"?>
<svg id="Capa_2" data-name="Capa 2" xmlns="http://www.w3.org/2000/svg" viewBox="0 0 60 48">
  <defs>
    <style>
      .cls-1 {
        fill: #fff;
      }
    </style>
  </defs>
  <g id="Capa_1-2" data-name="Capa 1">
    <path class="cls-1" d="M12,0c-3.31,0-6,2.69-6,6V27H1.8c-.99,0-1.8,.81-1.8,1.8,0,3.97,3.23,7.2,7.2,7.2H30v-9H12V6h30v3h6v-3c0-3.31-2.69-6-6-6H12ZM48,12h-10.5c-2.48,0-4.5,2.02-4.5,4.5v27c0,2.48,2.02,4.5,4.5,4.5h18c2.48,0,4.5-2.02,4.5-4.5V24h-9c-1.66,0-3-1.34-3-3V12Zm3,0v9h9l-9-9Z"/>
  </g>
</svg>