<?xml version="1.0" encoding="UTF-8"?>
<svg id="Capa_2" data-name="Capa 2" xmlns="http://www.w3.org/2000/svg" viewBox="0 0 123.5 141">
  <defs>
    <style>
      .cls-1 {
        fill: #668dd3;
        stroke: #fff;
        stroke-miterlimit: 10;
      }
    </style>
  </defs>
  <g id="Capa_1-2" data-name="Capa 1">
    <path class="cls-1" d="M123,57.91c-12.04,.03-23.79-3.73-33.58-10.74v48.88c0,24.55-19.92,44.45-44.47,44.44-24.55,0-44.45-19.92-44.44-44.47,0-24.55,19.92-44.45,44.47-44.44,2.04,0,4.07,.14,6.09,.42v24.59c-10.75-3.38-22.21,2.59-25.59,13.34-3.38,10.75,2.59,22.21,13.34,25.59s22.21-2.59,25.59-13.34c.62-1.98,.94-4.05,.94-6.12V.5h24.07c-.02,2.03,.15,4.06,.51,6.06h0c1.69,9.03,7.02,16.96,14.74,21.94,5.44,3.59,11.81,5.51,18.32,5.51v23.9Z"/>
  </g>
</svg>