<?xml version="1.0" encoding="UTF-8"?>
<svg id="Capa_2" data-name="Capa 2" xmlns="http://www.w3.org/2000/svg" viewBox="0 0 141 99.44">
  <defs>
    <style>
      .cls-1 {
        fill: #668dd3;
        stroke: #fff;
        stroke-miterlimit: 10;
      }
    </style>
  </defs>
  <g id="Capa_1-2" data-name="Capa 1">
    <path class="cls-1" d="M137.57,15.9c-1.61-6.06-6.35-10.84-12.38-12.46C114.28,.5,70.5,.5,70.5,.5c0,0-43.78,0-54.7,2.94-6.02,1.62-10.77,6.4-12.38,12.46C.5,26.89,.5,49.82,.5,49.82c0,0,0,22.93,2.93,33.92,1.61,6.06,6.35,10.64,12.38,12.26,10.92,2.94,54.7,2.94,54.7,2.94,0,0,43.78,0,54.7-2.94,6.02-1.62,10.77-6.2,12.38-12.26,2.93-10.99,2.93-33.92,2.93-33.92,0,0,0-22.93-2.93-33.92ZM56.18,70.63V29l36.59,20.82-36.59,20.82h0Z"/>
  </g>
</svg>